<mxfile host="65bd71144e">
    <diagram id="EAmS4ErtBwujTkbjs733" name="Page-1">
        <mxGraphModel dx="1737" dy="1016" grid="1" gridSize="10" guides="1" tooltips="1" connect="1" arrows="1" fold="1" page="1" pageScale="1" pageWidth="1600" pageHeight="900" math="0" shadow="0">
            <root>
                <mxCell id="0"/>
                <mxCell id="1" parent="0"/>
                <mxCell id="32" value="PEDIDOS&lt;br&gt;&lt;br&gt;&lt;div style=&quot;text-align: left;&quot;&gt;&lt;span style=&quot;background-color: initial;&quot;&gt;id&lt;/span&gt;&lt;/div&gt;&lt;div style=&quot;text-align: left;&quot;&gt;&lt;span style=&quot;background-color: initial;&quot;&gt;shipping id - charfield/numberfield&lt;/span&gt;&lt;/div&gt;&lt;div style=&quot;text-align: left;&quot;&gt;&lt;span style=&quot;background-color: initial;&quot;&gt;contractor - charfield&lt;/span&gt;&lt;/div&gt;&lt;div style=&quot;text-align: left;&quot;&gt;&lt;span style=&quot;background-color: initial;&quot;&gt;contractor id - foreignkey&lt;/span&gt;&lt;/div&gt;&lt;div style=&quot;text-align: left;&quot;&gt;register date - datefield&lt;/div&gt;&lt;div style=&quot;text-align: left;&quot;&gt;deadline date - datefield&lt;/div&gt;&lt;div style=&quot;text-align: left;&quot;&gt;delivered - bool&lt;/div&gt;&lt;div style=&quot;text-align: left;&quot;&gt;custos - numberfield&lt;/div&gt;&lt;div style=&quot;text-align: left;&quot;&gt;faturamento total - numberfield&lt;/div&gt;&lt;div style=&quot;text-align: left;&quot;&gt;expectativa de lucro - numberfield&lt;/div&gt;&lt;div style=&quot;text-align: left;&quot;&gt;observacoes - charfield&lt;/div&gt;" style="shape=ext;double=1;rounded=0;whiteSpace=wrap;html=1;" vertex="1" parent="1">
                    <mxGeometry x="1140" y="330" width="280" height="330" as="geometry"/>
                </mxCell>
                <mxCell id="33" value="&lt;br&gt;CONTRACTOR&lt;br&gt;&lt;div style=&quot;text-align: left;&quot;&gt;&lt;span style=&quot;background-color: initial;&quot;&gt;id&lt;/span&gt;&lt;/div&gt;&lt;div style=&quot;text-align: left;&quot;&gt;&lt;span style=&quot;background-color: initial;&quot;&gt;contractor-name - charfield&lt;/span&gt;&lt;/div&gt;&lt;div style=&quot;text-align: left;&quot;&gt;&lt;span style=&quot;background-color: initial;&quot;&gt;contractor cnpj - charfield&lt;/span&gt;&lt;/div&gt;&lt;div style=&quot;text-align: left;&quot;&gt;register date - datefield&lt;/div&gt;&lt;div style=&quot;text-align: left;&quot;&gt;open orders - numberfield&lt;/div&gt;&lt;div style=&quot;text-align: left;&quot;&gt;amount of orders - numberfield&lt;/div&gt;&lt;div style=&quot;text-align: left;&quot;&gt;emails - foreignkey&lt;/div&gt;&lt;div style=&quot;text-align: left;&quot;&gt;observacoes - charfield&lt;/div&gt;" style="shape=ext;double=1;rounded=0;whiteSpace=wrap;html=1;" vertex="1" parent="1">
                    <mxGeometry x="770" y="330" width="280" height="330" as="geometry"/>
                </mxCell>
                <mxCell id="34" value="&lt;br&gt;CONTRACTOR&lt;br&gt;&lt;div style=&quot;text-align: left;&quot;&gt;&lt;span style=&quot;background-color: initial;&quot;&gt;id&lt;/span&gt;&lt;/div&gt;&lt;div style=&quot;text-align: left;&quot;&gt;&lt;span style=&quot;background-color: initial;&quot;&gt;contractor-name - charfield&lt;/span&gt;&lt;/div&gt;&lt;div style=&quot;text-align: left;&quot;&gt;&lt;span style=&quot;background-color: initial;&quot;&gt;contractor cnpj - charfield&lt;/span&gt;&lt;/div&gt;&lt;div style=&quot;text-align: left;&quot;&gt;register date - datefield&lt;/div&gt;&lt;div style=&quot;text-align: left;&quot;&gt;open orders - numberfield&lt;/div&gt;&lt;div style=&quot;text-align: left;&quot;&gt;amount of orders - numberfield&lt;/div&gt;&lt;div style=&quot;text-align: left;&quot;&gt;emails - foreignkey&lt;/div&gt;&lt;div style=&quot;text-align: left;&quot;&gt;observacoes - charfield&lt;/div&gt;" style="shape=ext;double=1;rounded=0;whiteSpace=wrap;html=1;" vertex="1" parent="1">
                    <mxGeometry x="420" y="330" width="280" height="330" as="geometry"/>
                </mxCell>
            </root>
        </mxGraphModel>
    </diagram>
</mxfile>